<svg version="1.1" xmlns="http://www.w3.org/2000/svg" xmlns:xlink="http://www.w3.org/1999/xlink" overflow="visible" preserveAspectRatio="none" viewBox="0 0 14 9" width="12" height="7"><g transform="translate(1, 1)"><desc>Created with Sketch.</desc><g id="Page-1" stroke="none" stroke-width="1" fill="none" fill-rule="evenodd"><g id="Empty" transform="translate(-963.065639, -648.273128)" fill="#FFFFFF" fill-rule="nonzero"><g id="ui" transform="translate(648.000000, 271.000000)"><g id="Button" transform="translate(242.000000, 359.000000)"><g id="Group" transform="translate(29.000000, 12.000000)"><path d="M56.0562473,9.16305284 C56.3131433,9.31497876 56.489883,9.63230266 56.489883,9.999151 C56.489883,10.3913795 56.2878421,10.7269939 56.0018086,10.8643685 L52.0496168,13.6019046 C51.6782153,13.8591606 51.2033061,13.7064934 50.9888773,13.260913 C50.7744485,12.8153325 50.9017001,12.245571 51.2731016,11.988315 L52.7999018,10.9307574 L44.8421545,10.9307574 C44.413297,10.9307574 44.0656392,10.513663 44.0656392,9.999151 C44.0656392,9.48463901 44.413297,9.06754464 44.8421545,9.06754464 L52.8123008,9.06754464 L51.2879519,8.01168497 C50.9165504,7.75442898 50.7892989,7.18466747 51.0037276,6.73908701 C51.2181564,6.29350656 51.6930657,6.14083942 52.0644672,6.39809542 L56.0562473,9.16305284 L56.0562473,9.16305284 Z" id="Combined-Shape" vector-effect="non-scaling-stroke"/></g></g></g></g></g></g></svg>