<svg version="1.1" xmlns="http://www.w3.org/2000/svg" xmlns:xlink="http://www.w3.org/1999/xlink" overflow="visible" preserveAspectRatio="none" viewBox="0 0 61 71" width="59" height="69"><g transform="translate(1, 1)"><desc>Created with Sketch.</desc><g id="Page-1" stroke="none" stroke-width="1" fill="none" fill-rule="evenodd"><g id="Empty" transform="translate(-838.328418, -303.000000)" fill="#FFFFFF" fill-rule="nonzero"><g id="ui" transform="translate(648.000000, 271.000000)"><g id="avatar" transform="translate(129.000000, 0.000000)"><path d="M101.388131,62.4103814 C97.2578906,63.0395056 92.7901343,56.7516267 91.4091177,48.3660109 C90.0281011,39.980395 92.256787,32.6725043 96.3870271,32.0433801 C100.517267,31.4142559 104.985023,37.7021347 106.36604,46.0877506 C107.747057,54.4733665 105.518371,61.7812572 101.388131,62.4103814 Z M75.3881306,62.4103814 C71.2578906,63.0395056 66.7901343,56.7516267 65.4091177,48.3660109 C64.0281011,39.980395 66.256787,32.6725043 70.3870271,32.0433801 C74.5172672,31.4142559 78.9850234,37.7021347 80.36604,46.0877506 C81.7470566,54.4733665 79.5183707,61.7812572 75.3881306,62.4103814 Z M62.178754,87.5182379 C60.7251296,85.5024007 61.1808932,82.6898464 63.1967303,81.236222 C65.2125675,79.7825976 68.0251219,80.2383611 69.4787463,82.2541983 C73.3066148,87.5625569 79.6792609,91.1259571 86.9166557,91.7591471 C99.5612722,92.8654077 110.413658,84.7304617 111.363837,73.8698641 C111.580444,71.39404 113.76309,69.5625823 116.238914,69.7791888 C118.714738,69.9957954 120.546196,72.1784417 120.32959,74.6542658 C118.925793,90.6997377 103.522134,102.246317 86.1322541,100.724899 C76.3100608,99.8655688 67.5503564,94.9673944 62.178754,87.5182379 Z" id="face" vector-effect="non-scaling-stroke"/></g></g></g></g></g></svg>